<svg width="20" height="21" viewBox="0 0 20 21" fill="none" xmlns="http://www.w3.org/2000/svg">
<path fill-rule="evenodd" clip-rule="evenodd" d="M15.2198 7.24232V5.75687C15.2198 3.01134 12.8828 0.785644 9.99999 0.785645C7.11721 0.785645 4.78026 3.01134 4.78026 5.75686V7.24232H0V16.0236C0 18.6536 2.23857 20.7856 5 20.7856H15C17.7614 20.7856 20 18.6536 20 16.0236V7.24232H15.2198ZM13.7197 9.0584C13.7197 9.45289 14.0555 9.77269 14.4697 9.77269C14.884 9.77269 15.2198 9.45289 15.2198 9.0584V8.6709H18.5V16.0236C18.5 17.8646 16.933 19.3571 15 19.3571H5C3.067 19.3571 1.5 17.8646 1.5 16.0236V8.6709H4.78026V9.0584C4.78026 9.45289 5.11605 9.77269 5.53026 9.77269C5.94448 9.77269 6.28026 9.45289 6.28026 9.0584V8.6709H13.7197V9.0584ZM6.28026 7.24232H13.7197V5.75687C13.7197 3.80032 12.0543 2.21423 9.99999 2.21423C7.94564 2.21423 6.28026 3.80032 6.28026 5.75686V7.24232Z" fill="white"/>
</svg>
