<svg width="20" height="19" viewBox="0 0 20 19" fill="none" xmlns="http://www.w3.org/2000/svg">
<path fill-rule="evenodd" clip-rule="evenodd" d="M11.382 1.01353C12.3236 0.391491 13.5839 -0.0919135 15.0702 0.155078C18.9291 0.796309 20.1358 4.171 19.9894 6.31241C19.8646 8.92182 18.1358 11.3709 16.185 13.3364C14.2092 15.3272 11.8851 16.9419 10.3448 17.879L9.99936 18.0893L9.65528 17.8767C6.96354 16.2139 5.01483 14.5445 3.63549 13.1505C0.762503 10.247 0.055331 7.77413 0.00326939 6.29667C-0.0786213 3.97271 1.26088 0.581095 5.08202 0.130802C7.44853 -0.148075 9.1148 1.25908 9.99415 2.20631C10.3437 1.82735 10.8107 1.39099 11.382 1.01353ZM12.1096 2.14719C11.3496 2.64927 10.8008 3.29445 10.5321 3.65181L10.026 4.32475L9.49072 3.67544C8.85864 2.90866 7.4215 1.21701 5.23584 1.47458C2.35024 1.81463 1.26878 4.34776 1.33575 6.24833C1.3738 7.3282 1.90168 9.4889 4.57644 12.192C5.82778 13.4566 7.58677 14.9747 10.004 16.5056C11.4747 15.5819 13.5114 14.1237 15.2455 12.3765C17.1427 10.4649 18.5609 8.32391 18.6579 6.24058L18.6582 6.23254L18.6588 6.22452C18.776 4.55319 17.8368 1.98563 14.8548 1.4901C13.7901 1.31318 12.8638 1.64895 12.1096 2.14719Z" fill="white"/>
</svg>
