<svg width="20" height="21" viewBox="0 0 20 21" fill="none" xmlns="http://www.w3.org/2000/svg">
<path fill-rule="evenodd" clip-rule="evenodd" d="M13.5518 5.78559C13.5518 7.71857 11.9446 9.28556 9.962 9.28556C7.97946 9.28556 6.37229 7.71857 6.37229 5.78559C6.37229 3.85263 7.97946 2.28564 9.962 2.28564C11.9446 2.28564 13.5518 3.85263 13.5518 5.78559ZM15.0903 5.78559C15.0903 8.54699 12.7943 10.7856 9.962 10.7856C7.12978 10.7856 4.83381 8.54699 4.83381 5.78559C4.83381 3.02419 7.12978 0.785645 9.962 0.785645C12.7943 0.785645 15.0903 3.02419 15.0903 5.78559ZM8.97434 12.0358C4.01795 12.0358 0 15.9533 0 20.7856H1.53847C1.53847 16.7816 4.86763 13.5358 8.97434 13.5358H11.0256C15.1324 13.5358 18.4615 16.7816 18.4615 20.7856H20C20 15.9533 15.982 12.0358 11.0256 12.0358H8.97434Z" fill="white"/>
</svg>
